<svg aria-roledescription="flowchart-v2" role="graphics-document document" viewBox="-8 -8 1306.236328125 1497" style="max-width: 1306.236328125px;" xmlns="http://www.w3.org/2000/svg" width="100%" id="architecture2"><style>#architecture2{font-family:"trebuchet ms",verdana,arial,sans-serif;font-size:16px;fill:#000000;}#architecture2 .error-icon{fill:#552222;}#architecture2 .error-text{fill:#552222;stroke:#552222;}#architecture2 .edge-thickness-normal{stroke-width:2px;}#architecture2 .edge-thickness-thick{stroke-width:3.5px;}#architecture2 .edge-pattern-solid{stroke-dasharray:0;}#architecture2 .edge-pattern-dashed{stroke-dasharray:3;}#architecture2 .edge-pattern-dotted{stroke-dasharray:2;}#architecture2 .marker{fill:#666;stroke:#666;}#architecture2 .marker.cross{stroke:#666;}#architecture2 svg{font-family:"trebuchet ms",verdana,arial,sans-serif;font-size:16px;}#architecture2 .label{font-family:"trebuchet ms",verdana,arial,sans-serif;color:#000000;}#architecture2 .cluster-label text{fill:#333;}#architecture2 .cluster-label span,#architecture2 p{color:#333;}#architecture2 .label text,#architecture2 span,#architecture2 p{fill:#000000;color:#000000;}#architecture2 .node rect,#architecture2 .node circle,#architecture2 .node ellipse,#architecture2 .node polygon,#architecture2 .node path{fill:#eee;stroke:#999;stroke-width:1px;}#architecture2 .flowchart-label text{text-anchor:middle;}#architecture2 .node .katex path{fill:#000;stroke:#000;stroke-width:1px;}#architecture2 .node .label{text-align:center;}#architecture2 .node.clickable{cursor:pointer;}#architecture2 .arrowheadPath{fill:#333333;}#architecture2 .edgePath .path{stroke:#666;stroke-width:2.0px;}#architecture2 .flowchart-link{stroke:#666;fill:none;}#architecture2 .edgeLabel{background-color:white;text-align:center;}#architecture2 .edgeLabel rect{opacity:0.5;background-color:white;fill:white;}#architecture2 .labelBkg{background-color:rgba(255, 255, 255, 0.5);}#architecture2 .cluster rect{fill:hsl(0, 0%, 98.9215686275%);stroke:#707070;stroke-width:1px;}#architecture2 .cluster text{fill:#333;}#architecture2 .cluster span,#architecture2 p{color:#333;}#architecture2 div.mermaidTooltip{position:absolute;text-align:center;max-width:200px;padding:2px;font-family:"trebuchet ms",verdana,arial,sans-serif;font-size:12px;background:hsl(-160, 0%, 93.3333333333%);border:1px solid #707070;border-radius:2px;pointer-events:none;z-index:100;}#architecture2 .flowchartTitleText{text-anchor:middle;font-size:18px;fill:#000000;}#architecture2 :root{--mermaid-font-family:"trebuchet ms",verdana,arial,sans-serif;}</style><g><marker orient="auto" markerHeight="12" markerWidth="12" markerUnits="userSpaceOnUse" refY="5" refX="6" viewBox="0 0 10 10" class="marker flowchart" id="architecture2_flowchart-pointEnd"><path style="stroke-width: 1; stroke-dasharray: 1, 0;" class="arrowMarkerPath" d="M 0 0 L 10 5 L 0 10 z"></path></marker><marker orient="auto" markerHeight="12" markerWidth="12" markerUnits="userSpaceOnUse" refY="5" refX="4.5" viewBox="0 0 10 10" class="marker flowchart" id="architecture2_flowchart-pointStart"><path style="stroke-width: 1; stroke-dasharray: 1, 0;" class="arrowMarkerPath" d="M 0 5 L 10 10 L 10 0 z"></path></marker><marker orient="auto" markerHeight="11" markerWidth="11" markerUnits="userSpaceOnUse" refY="5" refX="11" viewBox="0 0 10 10" class="marker flowchart" id="architecture2_flowchart-circleEnd"><circle style="stroke-width: 1; stroke-dasharray: 1, 0;" class="arrowMarkerPath" r="5" cy="5" cx="5"></circle></marker><marker orient="auto" markerHeight="11" markerWidth="11" markerUnits="userSpaceOnUse" refY="5" refX="-1" viewBox="0 0 10 10" class="marker flowchart" id="architecture2_flowchart-circleStart"><circle style="stroke-width: 1; stroke-dasharray: 1, 0;" class="arrowMarkerPath" r="5" cy="5" cx="5"></circle></marker><marker orient="auto" markerHeight="11" markerWidth="11" markerUnits="userSpaceOnUse" refY="5.2" refX="12" viewBox="0 0 11 11" class="marker cross flowchart" id="architecture2_flowchart-crossEnd"><path style="stroke-width: 2; stroke-dasharray: 1, 0;" class="arrowMarkerPath" d="M 1,1 l 9,9 M 10,1 l -9,9"></path></marker><marker orient="auto" markerHeight="11" markerWidth="11" markerUnits="userSpaceOnUse" refY="5.2" refX="-1" viewBox="0 0 11 11" class="marker cross flowchart" id="architecture2_flowchart-crossStart"><path style="stroke-width: 2; stroke-dasharray: 1, 0;" class="arrowMarkerPath" d="M 1,1 l 9,9 M 10,1 l -9,9"></path></marker><g class="root"><g class="clusters"></g><g class="edgePaths"><path marker-end="url(#architecture2_flowchart-pointEnd)" style="fill:none;" class="edge-thickness-normal edge-pattern-solid flowchart-link LS-Route LE-Config" id="L-Route-Config-0" d="M250.04,34L258.708,38.167C267.376,42.333,284.711,50.667,311.523,58.811C338.335,66.955,374.622,74.91,392.766,78.888L410.91,82.865"></path><path marker-end="url(#architecture2_flowchart-pointEnd)" style="fill:none;" class="edge-thickness-normal edge-pattern-solid flowchart-link LS-Command LE-Config" id="L-Command-Config-0" d="M597.852,34L597.852,38.167C597.852,42.333,597.852,50.667,588.332,58.67C578.812,66.673,559.773,74.346,550.253,78.182L540.734,82.019"></path><path marker-end="url(#architecture2_flowchart-pointEnd)" style="fill:none;" class="edge-thickness-normal edge-pattern-solid flowchart-link LS-Config LE-Dispatch" id="L-Config-Dispatch-0" d="M493.635,118L493.635,122.167C493.635,126.333,493.635,134.667,493.635,142.117C493.635,149.567,493.635,156.133,493.635,159.417L493.635,162.7"></path><path marker-end="url(#architecture2_flowchart-pointEnd)" style="fill:none;" class="edge-thickness-normal edge-pattern-solid flowchart-link LS-Dispatch LE-Offline" id="L-Dispatch-Offline-0" d="M441.575,202L428.815,206.167C416.055,210.333,390.535,218.667,377.775,229.833C365.016,241,365.016,255,365.016,269C365.016,283,365.016,297,365.016,311C365.016,325,365.016,339,365.016,353C365.016,367,365.016,381,365.016,395C365.016,409,365.016,423,365.016,437C365.016,451,365.016,465,365.016,479C365.016,493,365.016,507,365.016,521C365.016,535,365.016,549,365.016,563C365.016,577,365.016,591,365.016,606.583C365.016,622.167,365.016,639.333,365.016,652.783C365.016,666.233,365.016,675.967,365.016,680.833L365.016,685.7"></path><path marker-end="url(#architecture2_flowchart-pointEnd)" style="fill:none;" class="edge-thickness-normal edge-pattern-solid flowchart-link LS-Offline LE-Segments" id="L-Offline-Segments-0" d="M365.016,725L365.016,729.167C365.016,733.333,365.016,741.667,412.767,751.08C460.519,760.493,556.022,770.986,603.773,776.233L651.525,781.479"></path><path marker-end="url(#architecture2_flowchart-pointEnd)" style="fill:none;" class="edge-thickness-normal edge-pattern-solid flowchart-link LS-Dispatch LE-Adapters" id="L-Dispatch-Adapters-0" d="M562.163,202L578.959,206.167C595.755,210.333,629.347,218.667,646.143,226.117C662.939,233.567,662.939,240.133,662.939,243.417L662.939,246.7"></path><path marker-end="url(#architecture2_flowchart-pointEnd)" style="fill:none;" class="edge-thickness-normal edge-pattern-solid flowchart-link LS-Adapters LE-Shared" id="L-Adapters-Shared-0" d="M662.939,286L662.939,290.167C662.939,294.333,662.939,302.667,662.939,310.117C662.939,317.567,662.939,324.133,662.939,327.417L662.939,330.7"></path><path marker-end="url(#architecture2_flowchart-pointEnd)" style="fill:none;" class="edge-thickness-normal edge-pattern-solid flowchart-link LS-Shared LE-Prompt" id="L-Shared-Prompt-0" d="M662.939,370L662.939,374.167C662.939,378.333,662.939,386.667,682.625,394.824C702.31,402.982,741.681,410.965,761.366,414.956L781.051,418.947"></path><path marker-end="url(#architecture2_flowchart-pointEnd)" style="fill:none;" class="edge-thickness-normal edge-pattern-solid flowchart-link LS-Context LE-Prompt" id="L-Context-Prompt-0" d="M1077.248,370L1077.248,374.167C1077.248,378.333,1077.248,386.667,1057.563,394.824C1037.877,402.982,998.507,410.965,978.822,414.956L959.136,418.947"></path><path marker-end="url(#architecture2_flowchart-pointEnd)" style="fill:none;" class="edge-thickness-normal edge-pattern-solid flowchart-link LS-Prompt LE-HTTP" id="L-Prompt-HTTP-0" d="M870.094,454L870.094,458.167C870.094,462.333,870.094,470.667,870.094,478.117C870.094,485.567,870.094,492.133,870.094,495.417L870.094,498.7"></path><path marker-end="url(#architecture2_flowchart-pointEnd)" style="fill:none;" class="edge-thickness-normal edge-pattern-solid flowchart-link LS-HTTP LE-Validate" id="L-HTTP-Validate-0" d="M870.094,538L870.094,542.167C870.094,546.333,870.094,554.667,870.094,562.117C870.094,569.567,870.094,576.133,870.094,579.417L870.094,582.7"></path><path marker-end="url(#architecture2_flowchart-pointEnd)" style="fill:none;" class="edge-thickness-normal edge-pattern-solid flowchart-link LS-Validate LE-Hindi" id="L-Validate-Hindi-0" d="M819.897,622L802.919,627.75C785.94,633.5,751.984,645,735.006,655.617C718.027,666.233,718.027,675.967,718.027,680.833L718.027,685.7"></path><path marker-end="url(#architecture2_flowchart-pointEnd)" style="fill:none;" class="edge-thickness-normal edge-pattern-solid flowchart-link LS-Hindi LE-Segments" id="L-Hindi-Segments-0" d="M718.027,725L718.027,729.167C718.027,733.333,718.027,741.667,720.424,749.275C722.821,756.884,727.615,763.767,730.012,767.209L732.409,770.651"></path><path marker-end="url(#architecture2_flowchart-pointEnd)" style="fill:none;" class="edge-thickness-normal edge-pattern-solid flowchart-link LS-Validate LE-Segments" id="L-Validate-Segments-0" d="M910.635,622L924.348,627.75C938.06,633.5,965.485,645,979.198,659.333C992.91,673.667,992.91,690.833,992.91,706.417C992.91,722,992.91,736,967.923,747.273C942.935,758.545,892.961,767.09,867.973,771.363L842.986,775.635"></path><path marker-end="url(#architecture2_flowchart-pointEnd)" style="fill:none;" class="edge-thickness-normal edge-pattern-solid flowchart-link LS-Route LE-Build" id="L-Route-Build-0" d="M210.628,34L209.636,38.167C208.644,42.333,206.66,50.667,205.668,61.833C204.676,73,204.676,87,204.676,101C204.676,115,204.676,129,204.676,143C204.676,157,204.676,171,204.676,185C204.676,199,204.676,213,204.676,227C204.676,241,204.676,255,204.676,269C204.676,283,204.676,297,204.676,311C204.676,325,204.676,339,204.676,353C204.676,367,204.676,381,204.676,395C204.676,409,204.676,423,204.676,437C204.676,451,204.676,465,204.676,479C204.676,493,204.676,507,204.676,521C204.676,535,204.676,549,204.676,563C204.676,577,204.676,591,204.676,606.583C204.676,622.167,204.676,639.333,204.676,656.5C204.676,673.667,204.676,690.833,204.676,706.417C204.676,722,204.676,736,204.676,750C204.676,764,204.676,778,204.676,792C204.676,806,204.676,820,240.11,832.205C275.545,844.41,346.414,854.82,381.849,860.025L417.284,865.23"></path><path marker-end="url(#architecture2_flowchart-pointEnd)" style="fill:none;" class="edge-thickness-normal edge-pattern-solid flowchart-link LS-Segments LE-Build" id="L-Segments-Build-0" d="M747.277,809L747.277,813.167C747.277,817.333,747.277,825.667,716.715,834.834C686.154,844.002,625.03,854.003,594.468,859.004L563.906,864.005"></path><path marker-end="url(#architecture2_flowchart-pointEnd)" style="fill:none;" class="edge-thickness-normal edge-pattern-solid flowchart-link LS-Build LE-Mapping" id="L-Build-Mapping-0" d="M490.602,893L490.602,897.167C490.602,901.333,490.602,909.667,490.602,917.117C490.602,924.567,490.602,931.133,490.602,934.417L490.602,937.7"></path><path marker-end="url(#architecture2_flowchart-pointEnd)" style="fill:none;" class="edge-thickness-normal edge-pattern-solid flowchart-link LS-Mapping LE-Variant" id="L-Mapping-Variant-0" d="M490.602,977L490.602,981.167C490.602,985.333,490.602,993.667,490.602,1001.117C490.602,1008.567,490.602,1015.133,490.602,1018.417L490.602,1021.7"></path><path marker-end="url(#architecture2_flowchart-pointEnd)" style="fill:none;" class="edge-thickness-normal edge-pattern-solid flowchart-link LS-Variant LE-Voice" id="L-Variant-Voice-0" d="M425.593,1061L409.66,1065.167C393.726,1069.333,361.859,1077.667,345.926,1085.117C329.992,1092.567,329.992,1099.133,329.992,1102.417L329.992,1105.7"></path><path marker-end="url(#architecture2_flowchart-pointEnd)" style="fill:none;" class="edge-thickness-normal edge-pattern-solid flowchart-link LS-Voice LE-Plan" id="L-Voice-Plan-0" d="M329.992,1145L329.992,1149.167C329.992,1153.333,329.992,1161.667,329.992,1169.117C329.992,1176.567,329.992,1183.133,329.992,1186.417L329.992,1189.7"></path><path marker-end="url(#architecture2_flowchart-pointEnd)" style="fill:none;" class="edge-thickness-normal edge-pattern-solid flowchart-link LS-Plan LE-Audio" id="L-Plan-Audio-0" d="M296.772,1229L288.629,1233.167C280.487,1237.333,264.203,1245.667,256.06,1253.117C247.918,1260.567,247.918,1267.133,247.918,1270.417L247.918,1273.7"></path><path marker-end="url(#architecture2_flowchart-pointEnd)" style="fill:none;" class="edge-thickness-normal edge-pattern-solid flowchart-link LS-Audio LE-Render" id="L-Audio-Render-0" d="M247.918,1313L247.918,1317.167C247.918,1321.333,247.918,1329.667,266.413,1337.814C284.907,1345.962,321.897,1353.923,340.391,1357.904L358.886,1361.885"></path><path marker-end="url(#architecture2_flowchart-pointEnd)" style="fill:none;" class="edge-thickness-normal edge-pattern-solid flowchart-link LS-Plan LE-ASS" id="L-Plan-ASS-0" d="M375.753,1229L386.969,1233.167C398.185,1237.333,420.617,1245.667,431.833,1253.117C443.049,1260.567,443.049,1267.133,443.049,1270.417L443.049,1273.7"></path><path marker-end="url(#architecture2_flowchart-pointEnd)" style="fill:none;" class="edge-thickness-normal edge-pattern-solid flowchart-link LS-ASS LE-Render" id="L-ASS-Render-0" d="M443.049,1313L443.049,1317.167C443.049,1321.333,443.049,1329.667,443.049,1337.117C443.049,1344.567,443.049,1351.133,443.049,1354.417L443.049,1357.7"></path><path marker-end="url(#architecture2_flowchart-pointEnd)" style="fill:none;" class="edge-thickness-normal edge-pattern-solid flowchart-link LS-Variant LE-Render" id="L-Variant-Render-0" d="M555.61,1061L571.544,1065.167C587.477,1069.333,619.344,1077.667,635.277,1088.833C651.211,1100,651.211,1114,651.211,1128C651.211,1142,651.211,1156,651.211,1170C651.211,1184,651.211,1198,651.211,1212C651.211,1226,651.211,1240,651.211,1254C651.211,1268,651.211,1282,651.211,1296C651.211,1310,651.211,1324,631.426,1334.992C611.641,1345.984,572.07,1353.968,552.285,1357.96L532.5,1361.952"></path><path marker-end="url(#architecture2_flowchart-pointEnd)" style="fill:none;" class="edge-thickness-normal edge-pattern-solid flowchart-link LS-Render LE-Files" id="L-Render-Files-0" d="M443.049,1397L443.049,1401.167C443.049,1405.333,443.049,1413.667,443.049,1421.117C443.049,1428.567,443.049,1435.133,443.049,1438.417L443.049,1441.7"></path></g><g class="edgeLabels"><g class="edgeLabel"><g transform="translate(0, 0)" class="label"><rect height="0" width="0" ry="0" rx="0"></rect><text style=""><tspan class="row" x="0" dy="1em" xml:space="preserve"></tspan></text></g></g><g class="edgeLabel"><g transform="translate(0, 0)" class="label"><rect height="0" width="0" ry="0" rx="0"></rect><text style=""><tspan class="row" x="0" dy="1em" xml:space="preserve"></tspan></text></g></g><g class="edgeLabel"><g transform="translate(0, 0)" class="label"><rect height="0" width="0" ry="0" rx="0"></rect><text style=""><tspan class="row" x="0" dy="1em" xml:space="preserve"></tspan></text></g></g><g class="edgeLabel"><g transform="translate(0, 0)" class="label"><rect height="0" width="0" ry="0" rx="0"></rect><text style=""><tspan class="row" x="0" dy="1em" xml:space="preserve"></tspan></text></g></g><g class="edgeLabel"><g transform="translate(0, 0)" class="label"><rect height="0" width="0" ry="0" rx="0"></rect><text style=""><tspan class="row" x="0" dy="1em" xml:space="preserve"></tspan></text></g></g><g class="edgeLabel"><g transform="translate(0, 0)" class="label"><rect height="0" width="0" ry="0" rx="0"></rect><text style=""><tspan class="row" x="0" dy="1em" xml:space="preserve"></tspan></text></g></g><g class="edgeLabel"><g transform="translate(0, 0)" class="label"><rect height="0" width="0" ry="0" rx="0"></rect><text style=""><tspan class="row" x="0" dy="1em" xml:space="preserve"></tspan></text></g></g><g class="edgeLabel"><g transform="translate(0, 0)" class="label"><rect height="0" width="0" ry="0" rx="0"></rect><text style=""><tspan class="row" x="0" dy="1em" xml:space="preserve"></tspan></text></g></g><g class="edgeLabel"><g transform="translate(0, 0)" class="label"><rect height="0" width="0" ry="0" rx="0"></rect><text style=""><tspan class="row" x="0" dy="1em" xml:space="preserve"></tspan></text></g></g><g class="edgeLabel"><g transform="translate(0, 0)" class="label"><rect height="0" width="0" ry="0" rx="0"></rect><text style=""><tspan class="row" x="0" dy="1em" xml:space="preserve"></tspan></text></g></g><g class="edgeLabel"><g transform="translate(0, 0)" class="label"><rect height="0" width="0" ry="0" rx="0"></rect><text style=""><tspan class="row" x="0" dy="1em" xml:space="preserve"></tspan></text></g></g><g transform="translate(718.02734375, 656.5)" class="edgeLabel"><g transform="translate(-48.17578125, -9.5)" class="label"><rect height="18.60148811340332" width="96.57018280029297" ry="0" rx="0"></rect><text style=""><tspan class="row" x="0" dy="1em" xml:space="preserve">Hindi AI draft</tspan></text></g></g><g class="edgeLabel"><g transform="translate(0, 0)" class="label"><rect height="0" width="0" ry="0" rx="0"></rect><text style=""><tspan class="row" x="0" dy="1em" xml:space="preserve"></tspan></text></g></g><g transform="translate(992.91015625, 708)" class="edgeLabel"><g transform="translate(-45.55859375, -9.5)" class="label"><rect height="18.60148811340332" width="91.33670806884766" ry="0" rx="0"></rect><text style=""><tspan class="row" x="0" dy="1em" xml:space="preserve">English draft</tspan></text></g></g><g transform="translate(204.67578125, 437)" class="edgeLabel"><g transform="translate(-125.9375, -9.5)" class="label"><rect height="18.60148811340332" width="251.58836364746094" ry="0" rx="0"></rect><text style=""><tspan class="row" x="0" dy="1em" xml:space="preserve">edited segments bypass generation</tspan></text></g></g><g class="edgeLabel"><g transform="translate(0, 0)" class="label"><rect height="0" width="0" ry="0" rx="0"></rect><text style=""><tspan class="row" x="0" dy="1em" xml:space="preserve"></tspan></text></g></g><g class="edgeLabel"><g transform="translate(0, 0)" class="label"><rect height="0" width="0" ry="0" rx="0"></rect><text style=""><tspan class="row" x="0" dy="1em" xml:space="preserve"></tspan></text></g></g><g class="edgeLabel"><g transform="translate(0, 0)" class="label"><rect height="0" width="0" ry="0" rx="0"></rect><text style=""><tspan class="row" x="0" dy="1em" xml:space="preserve"></tspan></text></g></g><g class="edgeLabel"><g transform="translate(0, 0)" class="label"><rect height="0" width="0" ry="0" rx="0"></rect><text style=""><tspan class="row" x="0" dy="1em" xml:space="preserve"></tspan></text></g></g><g class="edgeLabel"><g transform="translate(0, 0)" class="label"><rect height="0" width="0" ry="0" rx="0"></rect><text style=""><tspan class="row" x="0" dy="1em" xml:space="preserve"></tspan></text></g></g><g class="edgeLabel"><g transform="translate(0, 0)" class="label"><rect height="0" width="0" ry="0" rx="0"></rect><text style=""><tspan class="row" x="0" dy="1em" xml:space="preserve"></tspan></text></g></g><g class="edgeLabel"><g transform="translate(0, 0)" class="label"><rect height="0" width="0" ry="0" rx="0"></rect><text style=""><tspan class="row" x="0" dy="1em" xml:space="preserve"></tspan></text></g></g><g class="edgeLabel"><g transform="translate(0, 0)" class="label"><rect height="0" width="0" ry="0" rx="0"></rect><text style=""><tspan class="row" x="0" dy="1em" xml:space="preserve"></tspan></text></g></g><g class="edgeLabel"><g transform="translate(0, 0)" class="label"><rect height="0" width="0" ry="0" rx="0"></rect><text style=""><tspan class="row" x="0" dy="1em" xml:space="preserve"></tspan></text></g></g><g transform="translate(651.2109375, 1212)" class="edgeLabel"><g transform="translate(-128.1328125, -9.5)" class="label"><rect height="18.60148811340332" width="256.524169921875" ry="0" rx="0"></rect><text style=""><tspan class="row" x="0" dy="1em" xml:space="preserve">selected media and visual template</tspan></text></g></g><g class="edgeLabel"><g transform="translate(0, 0)" class="label"><rect height="0" width="0" ry="0" rx="0"></rect><text style=""><tspan class="row" x="0" dy="1em" xml:space="preserve"></tspan></text></g></g></g><g class="nodes"><g transform="translate(214.67578125, 17)" data-id="Route" data-node="true" id="flowchart-Route-62" class="node default default flowchart-label"><rect height="34" width="429.3515625" y="-17" x="-214.67578125" ry="0" rx="0" style="" class="basic label-container"></rect><g transform="translate(0, -9.5)" style="" class="label"><rect></rect><text style=""><tspan class="row" x="0" dy="1em" xml:space="preserve">web/app.py: script_preview / script_variants / build_run</tspan></text></g></g><g transform="translate(597.8515625, 17)" data-id="Command" data-node="true" id="flowchart-Command-63" class="node default default flowchart-label"><rect height="34" width="237" y="-17" x="-118.5" ry="0" rx="0" style="" class="basic label-container"></rect><g transform="translate(0, -9.5)" style="" class="label"><rect></rect><text style=""><tspan class="row" x="0" dy="1em" xml:space="preserve">cli.py: cmd_script / cmd_build</tspan></text></g></g><g transform="translate(493.634765625, 101)" data-id="Config" data-node="true" id="flowchart-Config-64" class="node default default flowchart-label"><rect height="34" width="279.484375" y="-17" x="-139.7421875" ry="0" rx="0" style="" class="basic label-container"></rect><g transform="translate(0, -9.5)" style="" class="label"><rect></rect><text style=""><tspan class="row" x="0" dy="1em" xml:space="preserve">config.py: Brand.load / Product.load</tspan></text></g></g><g transform="translate(493.634765625, 185)" data-id="Dispatch" data-node="true" id="flowchart-Dispatch-65" class="node default default flowchart-label"><rect height="34" width="185.5390625" y="-17" x="-92.76953125" ry="0" rx="0" style="" class="basic label-container"></rect><g transform="translate(0, -9.5)" style="" class="label"><rect></rect><text style=""><tspan class="row" x="0" dy="1em" xml:space="preserve">cli.py: _build_segments</tspan></text></g></g><g transform="translate(365.015625, 708)" data-id="Offline" data-node="true" id="flowchart-Offline-66" class="node default default flowchart-label"><rect height="34" width="124.75" y="-17" x="-62.375" ry="0" rx="0" style="" class="basic label-container"></rect><g transform="translate(0, -9.5)" style="" class="label"><rect></rect><text style=""><tspan class="row" x="0" dy="1em" xml:space="preserve">script.py: build</tspan></text></g></g><g transform="translate(662.939453125, 269)" data-id="Adapters" data-node="true" id="flowchart-Adapters-67" class="node default default flowchart-label"><rect height="34" width="407.328125" y="-17" x="-203.6640625" ry="0" rx="0" style="" class="basic label-container"></rect><g transform="translate(0, -9.5)" style="" class="label"><rect></rect><text style=""><tspan class="row" x="0" dy="1em" xml:space="preserve">ai_script.py / local_script.py / hosted_script.py: build</tspan></text></g></g><g transform="translate(662.939453125, 353)" data-id="Shared" data-node="true" id="flowchart-Shared-68" class="node default default flowchart-label"><rect height="34" width="302.640625" y="-17" x="-151.3203125" ry="0" rx="0" style="" class="basic label-container"></rect><g transform="translate(0, -9.5)" style="" class="label"><rect></rect><text style=""><tspan class="row" x="0" dy="1em" xml:space="preserve">ad_prompt.py: write_with_length_retry</tspan></text></g></g><g transform="translate(870.09375, 437)" data-id="Prompt" data-node="true" id="flowchart-Prompt-69" class="node default default flowchart-label"><rect height="34" width="229.2890625" y="-17" x="-114.64453125" ry="0" rx="0" style="" class="basic label-container"></rect><g transform="translate(0, -9.5)" style="" class="label"><rect></rect><text style=""><tspan class="row" x="0" dy="1em" xml:space="preserve">build_prompt + segment_plan</tspan></text></g></g><g transform="translate(1077.248046875, 353)" data-id="Context" data-node="true" id="flowchart-Context-70" class="node default default flowchart-label"><rect height="34" width="425.9765625" y="-17" x="-212.98828125" ry="0" rx="0" style="" class="basic label-container"></rect><g transform="translate(0, -9.5)" style="" class="label"><rect></rect><text style=""><tspan class="row" x="0" dy="1em" xml:space="preserve">photo_analysis.prompt_block + collections.prompt_block</tspan></text></g></g><g transform="translate(870.09375, 521)" data-id="HTTP" data-node="true" id="flowchart-HTTP-71" class="node default default flowchart-label"><rect height="34" width="607.21875" y="-17" x="-303.609375" ry="0" rx="0" style="" class="basic label-container"></rect><g transform="translate(0, -9.5)" style="" class="label"><rect></rect><text style=""><tspan class="row" x="0" dy="1em" xml:space="preserve">gemini.generate_content / local_llm.chat_completion / hosted_script.completion</tspan></text></g></g><g transform="translate(870.09375, 605)" data-id="Validate" data-node="true" id="flowchart-Validate-72" class="node default default flowchart-label"><rect height="34" width="419.1015625" y="-17" x="-209.55078125" ry="0" rx="0" style="" class="basic label-container"></rect><g transform="translate(0, -9.5)" style="" class="label"><rect></rect><text style=""><tspan class="row" x="0" dy="1em" xml:space="preserve">parse_segments + validate_segments + check_guardrails</tspan></text></g></g><g transform="translate(718.02734375, 708)" data-id="Hindi" data-node="true" id="flowchart-Hindi-73" class="node default default flowchart-label"><rect height="34" width="330.1484375" y="-17" x="-165.07421875" ry="0" rx="0" style="" class="basic label-container"></rect><g transform="translate(0, -9.5)" style="" class="label"><rect></rect><text style=""><tspan class="row" x="0" dy="1em" xml:space="preserve">review_hindi: additional edit and validation</tspan></text></g></g><g transform="translate(747.27734375, 792)" data-id="Segments" data-node="true" id="flowchart-Segments-74" class="node default default flowchart-label"><rect height="34" width="180.96875" y="-17" x="-90.484375" ry="0" rx="0" style="" class="basic label-container"></rect><g transform="translate(0, -9.5)" style="" class="label"><rect></rect><text style=""><tspan class="row" x="0" dy="1em" xml:space="preserve">list of Segment objects</tspan></text></g></g><g transform="translate(490.6015625, 876)" data-id="Build" data-node="true" id="flowchart-Build-75" class="node default default flowchart-label"><rect height="34" width="136.1484375" y="-17" x="-68.07421875" ry="0" rx="0" style="" class="basic label-container"></rect><g transform="translate(0, -9.5)" style="" class="label"><rect></rect><text style=""><tspan class="row" x="0" dy="1em" xml:space="preserve">cli.py: build_one</tspan></text></g></g><g transform="translate(490.6015625, 960)" data-id="Mapping" data-node="true" id="flowchart-Mapping-76" class="node default default flowchart-label"><rect height="34" width="350.625" y="-17" x="-175.3125" ry="0" rx="0" style="" class="basic label-container"></rect><g transform="translate(0, -9.5)" style="" class="label"><rect></rect><text style=""><tspan class="row" x="0" dy="1em" xml:space="preserve">collections.render_photos for collection builds</tspan></text></g></g><g transform="translate(490.6015625, 1044)" data-id="Variant" data-node="true" id="flowchart-Variant-77" class="node default default flowchart-label"><rect height="34" width="181.078125" y="-17" x="-90.5390625" ry="0" rx="0" style="" class="basic label-container"></rect><g transform="translate(0, -9.5)" style="" class="label"><rect></rect><text style=""><tspan class="row" x="0" dy="1em" xml:space="preserve">cli.py: _render_variant</tspan></text></g></g><g transform="translate(329.9921875, 1128)" data-id="Voice" data-node="true" id="flowchart-Voice-78" class="node default default flowchart-label"><rect height="34" width="262.34375" y="-17" x="-131.171875" ry="0" rx="0" style="" class="basic label-container"></rect><g transform="translate(0, -9.5)" style="" class="label"><rect></rect><text style=""><tspan class="row" x="0" dy="1em" xml:space="preserve">voice.synthesize + probe_duration</tspan></text></g></g><g transform="translate(329.9921875, 1212)" data-id="Plan" data-node="true" id="flowchart-Plan-79" class="node default default flowchart-label"><rect height="34" width="316.171875" y="-17" x="-158.0859375" ry="0" rx="0" style="" class="basic label-container"></rect><g transform="translate(0, -9.5)" style="" class="label"><rect></rect><text style=""><tspan class="row" x="0" dy="1em" xml:space="preserve">render.plan: shot lengths, timings, pauses</tspan></text></g></g><g transform="translate(247.91796875, 1296)" data-id="Audio" data-node="true" id="flowchart-Audio-80" class="node default default flowchart-label"><rect height="34" width="108.0859375" y="-17" x="-54.04296875" ry="0" rx="0" style="" class="basic label-container"></rect><g transform="translate(0, -9.5)" style="" class="label"><rect></rect><text style=""><tspan class="row" x="0" dy="1em" xml:space="preserve">voice.concat</tspan></text></g></g><g transform="translate(443.048828125, 1296)" data-id="ASS" data-node="true" id="flowchart-ASS-81" class="node default default flowchart-label"><rect height="34" width="120.2109375" y="-17" x="-60.10546875" ry="0" rx="0" style="" class="basic label-container"></rect><g transform="translate(0, -9.5)" style="" class="label"><rect></rect><text style=""><tspan class="row" x="0" dy="1em" xml:space="preserve">subtitles.write</tspan></text></g></g><g transform="translate(443.048828125, 1380)" data-id="Render" data-node="true" id="flowchart-Render-82" class="node default default flowchart-label"><rect height="34" width="180.28125" y="-17" x="-90.140625" ry="0" rx="0" style="" class="basic label-container"></rect><g transform="translate(0, -9.5)" style="" class="label"><rect></rect><text style=""><tspan class="row" x="0" dy="1em" xml:space="preserve">render.render: FFmpeg</tspan></text></g></g><g transform="translate(443.048828125, 1464)" data-id="Files" data-node="true" id="flowchart-Files-83" class="node default default flowchart-label"><rect height="34" width="242.171875" y="-17" x="-121.0859375" ry="0" rx="0" style="" class="basic label-container"></rect><g transform="translate(0, -9.5)" style="" class="label"><rect></rect><text style=""><tspan class="row" x="0" dy="1em" xml:space="preserve">out/slug/*.mp4 and caption.txt</tspan></text></g></g></g></g></g></svg>